<?xml version="1.0" encoding="UTF-8" standalone="no"?>
<!-- Created with Inkscape (http://www.inkscape.org/) -->

<svg
   width="227.16762mm"
   height="254.14964mm"
   viewBox="0 0 227.16762 254.14964"
   version="1.1"
   id="svg5"
   inkscape:version="1.1 (c68e22c387, 2021-05-23)"
   sodipodi:docname="html.svg"
   xmlns:inkscape="http://www.inkscape.org/namespaces/inkscape"
   xmlns:sodipodi="http://sodipodi.sourceforge.net/DTD/sodipodi-0.dtd"
   xmlns:xlink="http://www.w3.org/1999/xlink"
   xmlns="http://www.w3.org/2000/svg"
   xmlns:svg="http://www.w3.org/2000/svg">
  <sodipodi:namedview
     id="namedview7"
     pagecolor="#44573b"
     bordercolor="#666666"
     borderopacity="1.0"
     inkscape:pageshadow="2"
     inkscape:pageopacity="0"
     inkscape:pagecheckerboard="0"
     inkscape:document-units="mm"
     showgrid="false"
     inkscape:zoom="0.32"
     inkscape:cx="-70.3125"
     inkscape:cy="495.3125"
     inkscape:window-width="1800"
     inkscape:window-height="1057"
     inkscape:window-x="112"
     inkscape:window-y="-8"
     inkscape:window-maximized="1"
     inkscape:current-layer="text561"
     fit-margin-top="0"
     fit-margin-left="0"
     fit-margin-right="0"
     fit-margin-bottom="0" />
  <defs
     id="defs2">
    <linearGradient
       id="linearGradient10393"
       inkscape:swatch="solid">
      <stop
         style="stop-color:#000000;stop-opacity:1;"
         offset="0"
         id="stop10391" />
    </linearGradient>
    <linearGradient
       inkscape:collect="always"
       xlink:href="#linearGradient10393"
       id="linearGradient10395"
       x1="39.121115"
       y1="158.57732"
       x2="266.28873"
       y2="158.57732"
       gradientUnits="userSpaceOnUse" />
  </defs>
  <g
     inkscape:label="Layer 1"
     inkscape:groupmode="layer"
     id="layer1"
     transform="translate(-39.121115,-31.502507)">
    <g
       aria-label="HTML
CSS
JS"
       id="text561"
       style="font-size:77.6111px;fill:#ffffff;stroke-width:52.91666667;stroke:url(#linearGradient10395);opacity:0.05">
      <g
         id="path10258">
        <path
           style="color:#000000;-inkscape-font-specification:Montserrat;stroke:none;stroke-width:52.9167;-inkscape-stroke:none"
           d="m 93.759329,31.502507 v 54.327769 h -5.66561 V 60.761891 H 54.100057 V 85.830276 H 48.356836 V 31.502507 h 5.743221 V 55.71717 H 88.093719 V 31.502507 Z"
           id="path10840" />
        <path
           id="path10842"
           style="color:#000000;-inkscape-font-specification:Montserrat;stroke:none;stroke-width:200;-inkscape-stroke:none"
           d="M 34.40625 -0.49609375 L 34.40625 205.83398 L 57.113281 205.83398 L 57.113281 111.08789 L 184.5918 111.08789 L 184.5918 205.83398 L 201.44531 204.83008 L 185.5957 204.83008 L 185.5957 110.08398 L 56.109375 110.08398 L 56.109375 204.83008 L 35.404297 204.83008 L 35.404297 0.5 L 56.109375 0.5 L 56.109375 92.021484 L 185.5957 92.021484 L 185.5957 0.5 L 206.00586 0.5 L 206.00586 204.55859 L 216.98633 203.9043 L 207.00977 -0.49609375 L 206.50781 -0.49609375 L 184.5918 -0.49609375 L 184.5918 91.017578 L 57.113281 91.017578 L 57.113281 -0.49609375 L 34.40625 -0.49609375 z M 206.00586 204.55859 L 201.44531 204.83008 L 206.00586 204.83008 L 206.00586 204.55859 z "
           transform="matrix(0.26458333,0,0,0.26458333,39.121115,31.502507)" />
      </g>
      <g
         id="path10260">
        <path
           style="color:#000000;-inkscape-font-specification:Montserrat;stroke:none;stroke-width:52.9167;-inkscape-stroke:none"
           d="m 122.00975,36.469617 h -19.09233 v -4.96711 h 43.92788 v 4.96711 h -19.09233 v 49.360659 h -5.74322 z"
           id="path10848" />
        <path
           style="color:#000000;-inkscape-font-specification:Montserrat;fill:url(#linearGradient10395);stroke:none;stroke-width:52.9167;-inkscape-stroke:none"
           d="m 102.78516,31.371094 v 5.230468 h 19.09179 v 49.361329 h 6.00782 V 36.601562 h 19.09375 v -5.230468 z m 0.26367,0.263672 h 43.66406 v 4.703125 h -19.0918 v 49.359375 h -5.47851 V 36.337891 h -0.13281 -18.96094 z"
           id="path10850" />
      </g>
      <g
         id="path10262">
        <path
           style="color:#000000;-inkscape-font-specification:Montserrat;stroke:none;stroke-width:52.9167;-inkscape-stroke:none"
           d="m 212.42664,31.502507 v 54.327769 h -5.51039 V 42.368061 l -21.34306,36.554828 h -2.71638 L 161.51375,42.600894 v 43.229382 h -5.51038 V 31.502507 h 4.73427 l 23.59378,40.280161 23.36094,-40.280161 z"
           id="path10856" />
        <path
           style="color:#000000;-inkscape-font-specification:Montserrat;fill:url(#linearGradient10395);stroke:none;stroke-width:52.9167;-inkscape-stroke:none"
           d="m 155.87109,31.371094 v 54.591797 h 5.77539 V 43.085937 l 21.13477,35.96875 h 2.86719 L 206.7832,42.859375 v 43.103516 h 5.77539 V 31.371094 h -0.13281 -4.81055 L 184.33008,71.519531 160.8125,31.371094 Z m 0.26368,0.263672 h 4.52734 l 23.66992,40.410156 23.4375,-40.410156 h 4.52539 v 54.0625 h -5.24609 v -43.81836 l -21.55078,36.91211 h -2.56641 L 161.38086,42.115234 v 43.582032 h -5.24609 z"
           id="path10858" />
      </g>
      <g
         id="path10264">
        <path
           style="color:#000000;-inkscape-font-specification:Montserrat;stroke:none;stroke-width:52.9167;-inkscape-stroke:none"
           d="m 230.12196,31.502507 h 5.74322 v 49.360659 h 30.42355 v 4.96711 h -36.16677 z"
           id="path10864" />
        <path
           style="color:#000000;-inkscape-font-specification:Montserrat;fill:url(#linearGradient10395);stroke:none;stroke-width:52.9167;-inkscape-stroke:none"
           d="m 229.99023,31.371094 v 0.130859 54.460938 h 36.43164 V 80.730469 H 235.99805 V 31.371094 Z m 0.26368,0.263672 h 5.47851 v 49.361328 h 30.42383 v 4.701172 h -35.90234 z"
           id="path10866" />
      </g>
      <g
         id="path10266">
        <path
           style="color:#000000;-inkscape-font-specification:Montserrat;stroke:none;stroke-width:52.9167;-inkscape-stroke:none"
           d="m 71.95061,185.97404 q -8.071554,0 -14.590887,-3.57011 -6.441721,-3.57011 -10.167054,-9.85661 -3.647721,-6.36411 -3.647721,-14.20283 0,-7.83872 3.647721,-14.12522 3.725333,-6.36411 10.244665,-9.93422 6.519333,-3.57011 14.590887,-3.57011 6.053666,0 11.175998,2.01789 5.122333,2.01789 8.692444,5.89844 l -3.647722,3.64772 q -6.36411,-6.44172 -16.065498,-6.44172 -6.441721,0 -11.719276,2.94922 -5.277554,2.94923 -8.304387,8.07156 -2.949222,5.12233 -2.949222,11.48644 0,6.36411 2.949222,11.48644 3.026833,5.12234 8.304387,8.07156 5.277555,2.94922 11.719276,2.94922 9.778999,0 16.065498,-6.51933 l 3.647722,3.64772 q -3.570111,3.88055 -8.770055,5.97605 -5.122332,2.01789 -11.175998,2.01789 z"
           id="path10872" />
        <path
           style="color:#000000;-inkscape-font-specification:Montserrat;fill:url(#linearGradient10395);stroke:none;stroke-width:52.9167;-inkscape-stroke:none"
           d="m 72.027344,130.58203 c -5.400535,0 -10.287906,1.19677 -14.654297,3.58789 -4.365952,2.39088 -7.799821,5.71996 -10.294922,9.98242 -2.443791,4.21164 -3.666016,8.94508 -3.666016,14.19141 0,5.24633 1.222552,10.00647 3.666016,14.26953 v 0.002 c 2.495002,4.21032 5.902982,7.51351 10.216797,9.9043 h 0.002 c 4.366391,2.39112 9.253762,3.58594 14.654297,3.58594 4.050472,0 7.793189,-0.67362 11.224609,-2.02539 v -0.002 c 3.483149,-1.40365 6.424653,-3.40596 8.81836,-6.00781 l 0.08594,-0.0937 -3.832031,-3.83203 -0.09375,0.0957 c -4.167204,4.32155 -9.480775,6.47852 -15.970703,6.47852 -4.274288,0 -8.155939,-0.97668 -11.654297,-2.93164 -3.498467,-1.95503 -6.247618,-4.62716 -8.253906,-8.02149 l -0.002,-0.002 c -1.953472,-3.39379 -2.929687,-7.19854 -2.929687,-11.41992 0,-4.22138 0.976215,-8.02418 2.929687,-11.41797 l 0.002,-0.002 c 2.006288,-3.39432 4.755439,-6.06645 8.253906,-8.02149 3.498358,-1.95496 7.380009,-2.93359 11.654297,-2.93359 6.438305,0 11.751587,2.13178 15.970703,6.40234 l 0.09375,0.0957 3.832031,-3.83203 -0.08594,-0.0937 c -2.393681,-2.60183 -5.310148,-4.57963 -8.742188,-5.93165 -3.43142,-1.35177 -7.174137,-2.02734 -11.224609,-2.02734 z m 0,0.26563 c 4.021074,0 7.730557,0.66906 11.128906,2.00781 3.356111,1.3221 6.196987,3.25547 8.546875,5.78125 l -3.460938,3.46289 c -4.251182,-4.25392 -9.610443,-6.39453 -16.058593,-6.39453 -4.314666,0 -8.244828,0.98947 -11.783203,2.96679 -3.537436,1.97681 -6.326108,4.68484 -8.355469,8.11915 v 0.002 c -1.977967,3.43541 -2.966797,7.28761 -2.966797,11.55078 0,4.26317 0.98883,8.11732 2.966797,11.55273 v 0.002 c 2.029361,3.43431 4.818033,6.14234 8.355469,8.11914 3.538375,1.97732 7.468537,2.9668 11.783203,2.96679 6.499153,10e-6 11.857947,-2.16763 16.058593,-6.47265 l 3.460938,3.46289 c -2.350583,2.52662 -5.216936,4.48598 -8.625,5.85937 -3.398349,1.33875 -7.105879,2.00782 -11.126953,2.00782 -5.361526,0 -10.2013,-1.18567 -14.527344,-3.55469 v 0.002 c -4.274675,-2.36909 -7.645157,-5.63561 -10.117187,-9.80664 v -0.002 c -2.419554,-4.222 -3.628907,-8.93208 -3.628907,-14.13672 0,-5.20529 1.209074,-9.88824 3.628907,-14.05859 2.472004,-4.22301 5.866877,-7.51551 10.193359,-9.88477 4.326044,-2.36902 9.165818,-3.55273 14.527344,-3.55273 z"
           id="path10874" />
      </g>
      <g
         id="path10268">
        <path
           style="color:#000000;-inkscape-font-specification:Montserrat;stroke:none;stroke-width:52.9167;-inkscape-stroke:none"
           d="m 118.82758,185.97404 q -6.05367,0 -11.64167,-1.94027 -5.51039,-1.94028 -8.537219,-5.12234 l 2.250719,-4.42383 q 2.94922,2.94922 7.83872,4.81189 4.8895,1.78505 10.08945,1.78505 7.29544,0 10.94316,-2.63877 3.64772,-2.71639 3.64772,-6.985 0,-3.25967 -2.01789,-5.19995 -1.94027,-1.94027 -4.81188,-2.94922 -2.87161,-1.08655 -7.99395,-2.32833 -6.13127,-1.55222 -9.779,-2.94922 -3.64772,-1.47461 -6.28649,-4.42384 -2.561171,-2.94922 -2.561171,-7.99394 0,-4.11339 2.173111,-7.45066 2.17311,-3.41489 6.67455,-5.43278 4.50145,-2.01789 11.176,-2.01789 4.65667,0 9.0805,1.31939 4.50145,1.24178 7.76111,3.4925 l -1.94028,4.57905 q -3.41488,-2.25072 -7.29544,-3.33727 -3.88055,-1.16417 -7.60589,-1.16417 -7.14022,0 -10.78794,2.794 -3.57011,2.71639 -3.57011,7.06261 0,3.25967 1.94028,5.27755 2.01789,1.94028 4.96711,3.02684 3.02683,1.00894 8.07155,2.25072 5.97606,1.47461 9.62378,2.94922 3.72533,1.397 6.2865,4.34622 2.56116,2.87161 2.56116,7.83872 0,4.11339 -2.25072,7.52828 -2.17311,3.33728 -6.75216,5.35517 -4.57906,1.94027 -11.25361,1.94027 z"
           id="path10880" />
        <path
           style="color:#000000;-inkscape-font-specification:Montserrat;fill:url(#linearGradient10395);stroke:none;stroke-width:52.9167;-inkscape-stroke:none"
           d="m 119.99219,130.58203 c -4.46303,0 -8.20724,0.67406 -11.23047,2.0293 -3.01913,1.3534 -5.26781,3.18088 -6.73242,5.48242 h 0.002 c -1.4623,2.24567 -2.195312,4.75788 -2.195313,7.52344 0,3.38553 0.861823,6.08574 2.593753,8.08008 v 0.002 c 1.77207,1.98056 3.88599,3.46663 6.33594,4.45703 h 0.002 v 0.002 c 2.43965,0.93434 5.70431,1.91753 9.79492,2.95313 h 0.002 c 3.41181,0.8271 6.07091,1.60316 7.97657,2.32422 h 0.002 0.002 c 1.89818,0.66693 3.48318,1.63942 4.76172,2.91797 l 0.002,0.002 c 1.31858,1.26786 1.97852,2.95965 1.97852,5.10547 0,2.80805 -1.19052,5.08781 -3.5957,6.8789 -2.39789,1.73373 -6.01688,2.61328 -10.86328,2.61328 -3.45086,0 -6.79806,-0.59292 -10.04297,-1.77734 h -0.002 c -3.2454,-1.23656 -5.84122,-2.83146 -7.79101,-4.78125 l -0.12891,-0.12891 -2.374999,4.66993 0.06445,0.0664 c 2.036259,2.14069 4.902049,3.85773 8.589849,5.15625 3.73931,1.29837 7.63564,1.94727 11.68555,1.94727 4.46251,0 8.23072,-0.6467 11.30468,-1.94922 v -0.002 h 0.002 c 3.06972,-1.35277 5.34329,-3.15265 6.80859,-5.40235 v -0.002 c 1.51324,-2.29657 2.27344,-4.83383 2.27344,-7.59961 0,-3.33302 -0.86226,-5.98328 -2.59375,-7.92578 l -0.002,-0.002 c -1.72077,-1.9808 -3.83468,-3.44259 -6.33593,-4.38086 h -0.002 c -2.44071,-0.98656 -5.65149,-1.96928 -9.63867,-2.95313 -3.35952,-0.82696 -6.04648,-1.57747 -8.05859,-2.24805 -1.94946,-0.71822 -3.58577,-1.71618 -4.91602,-2.99414 l -0.002,-0.002 c -6.5e-4,-6.2e-4 -10e-4,-10e-4 -0.002,-0.002 -1.26632,-1.31908 -1.90039,-3.03693 -1.90039,-5.18164 0,-2.86126 1.16456,-5.1667 3.51757,-6.95703 h 0.002 c 2.39873,-1.83733 5.96414,-2.76758 10.70703,-2.76758 2.46977,0 4.99249,0.38544 7.56836,1.1582 v 0.002 h 0.002 c 2.5739,0.72069 4.99229,1.82713 7.25781,3.32032 l 0.13281,0.0879 2.04493,-4.82617 -0.0899,-0.0606 c -2.18656,-1.50977 -4.78707,-2.67869 -7.79883,-3.50977 -2.96139,-0.88322 -6.00024,-1.32617 -9.11718,-1.32617 z m 0,0.26563 c 3.09195,0 6.10593,0.43654 9.04297,1.3125 v 0.002 h 0.002 c 2.9502,0.81385 5.48733,1.9571 7.62891,3.41992 l -1.8379,4.33789 c -2.24836,-1.46306 -4.64473,-2.56347 -7.19335,-3.27734 -2.5982,-0.77946 -5.14524,-1.16992 -7.64258,-1.16992 -4.7774,0 -8.40425,0.93231 -10.86914,2.82031 -2.40713,1.83151 -3.6211,4.23427 -3.6211,7.16797 0,2.19936 0.65838,3.99823 1.97657,5.36914 l 0.002,0.002 0.002,0.002 c 1.35958,1.30729 3.03274,2.32487 5.01367,3.05469 l 0.002,0.002 h 0.002 c 2.02336,0.67445 4.71482,1.42554 8.08008,2.25391 3.98015,0.98212 7.18468,1.96395 9.60742,2.94336 l 0.002,0.002 c 2.46423,0.92409 4.54097,2.35862 6.23438,4.3086 v 0.002 c 1.68222,1.88613 2.52734,4.46133 2.52734,7.75 0,2.71813 -0.74147,5.19887 -2.22851,7.45508 -1.43221,2.19946 -3.66018,3.96912 -6.69532,5.30664 -3.03115,1.28405 -6.76313,1.92969 -11.19921,1.92969 -4.021,0 -7.88686,-0.64536 -11.59766,-1.9336 h -0.002 c -3.62313,-1.27598 -6.41839,-2.95954 -8.414067,-5.0332 l 2.130857,-4.18555 c 1.96789,1.92801 4.53848,3.51243 7.7461,4.73438 h 0.002 c 3.27385,1.19521 6.653,1.79297 10.13477,1.79297 4.87957,0 8.55378,-0.88034 11.01953,-2.66407 h 0.002 c 2.45843,-1.83075 3.70117,-4.20837 3.70117,-7.09179 0,-2.19934 -0.68603,-3.974 -2.05664,-5.29297 l -0.002,-0.002 c -1.30775,-1.30714 -2.9285,-2.30053 -4.85742,-2.97852 h -0.002 c -1.92262,-0.72737 -4.58976,-1.50383 -8.00586,-2.33203 h -0.002 c -4.08335,-1.03382 -7.33818,-2.01715 -9.76172,-2.94531 -2.41261,-0.97574 -4.49064,-2.43761 -6.23633,-4.38868 -1.68182,-1.93776 -2.52734,-4.56467 -2.52734,-7.90429 0,-2.71896 0.71717,-5.17489 2.15234,-7.37891 v -0.002 c 1.43287,-2.25165 3.6344,-4.0457 6.61719,-5.38281 2.97869,-1.33528 6.68668,-2.00586 11.12305,-2.00586 z"
           id="path10882" />
      </g>
      <g
         id="path10270">
        <path
           style="color:#000000;-inkscape-font-specification:Montserrat;stroke:none;stroke-width:52.9167;-inkscape-stroke:none"
           d="m 166.55839,185.97404 q -6.05367,0 -11.64167,-1.94027 -5.51038,-1.94028 -8.53722,-5.12234 l 2.25072,-4.42383 q 2.94923,2.94922 7.83873,4.81189 4.88949,1.78505 10.08944,1.78505 7.29544,0 10.94316,-2.63877 3.64773,-2.71639 3.64773,-6.985 0,-3.25967 -2.01789,-5.19995 -1.94028,-1.94027 -4.81189,-2.94922 -2.87161,-1.08655 -7.99394,-2.32833 -6.13128,-1.55222 -9.779,-2.94922 -3.64772,-1.47461 -6.2865,-4.42384 -2.56117,-2.94922 -2.56117,-7.99394 0,-4.11339 2.17311,-7.45066 2.17311,-3.41489 6.67456,-5.43278 4.50144,-2.01789 11.17599,-2.01789 4.65667,0 9.0805,1.31939 4.50145,1.24178 7.76111,3.4925 l -1.94027,4.57905 q -3.41489,-2.25072 -7.29545,-3.33727 -3.88055,-1.16417 -7.60589,-1.16417 -7.14022,0 -10.78794,2.794 -3.57011,2.71639 -3.57011,7.06261 0,3.25967 1.94028,5.27755 2.01789,1.94028 4.96711,3.02684 3.02683,1.00894 8.07155,2.25072 5.97606,1.47461 9.62378,2.94922 3.72533,1.397 6.2865,4.34622 2.56117,2.87161 2.56117,7.83872 0,4.11339 -2.25073,7.52828 -2.17311,3.33728 -6.75216,5.35517 -4.57906,1.94027 -11.25361,1.94027 z"
           id="path10888" />
        <path
           style="color:#000000;-inkscape-font-specification:Montserrat;fill:url(#linearGradient10395);stroke:none;stroke-width:52.9167;-inkscape-stroke:none"
           d="m 167.72266,130.58203 c -4.46303,0 -8.20724,0.67406 -11.23047,2.0293 -3.01913,1.3534 -5.26781,3.18088 -6.73242,5.48242 h 0.002 c -1.4623,2.24567 -2.19531,4.75788 -2.19531,7.52344 0,3.38553 0.86182,6.08574 2.59375,8.08008 l 0.002,0.002 c 1.77208,1.98056 3.88404,3.46663 6.33398,4.45703 h 0.002 l 0.002,0.002 c 2.43965,0.93434 5.70235,1.91753 9.79297,2.95313 h 0.002 c 3.4118,0.8271 6.07286,1.60316 7.97852,2.32422 h 0.002 c 1.89818,0.66693 3.48317,1.63942 4.76172,2.91797 l 0.002,0.002 c 1.31858,1.26786 1.97852,2.95965 1.97852,5.10547 0,2.80805 -1.19051,5.0878 -3.59571,6.8789 -2.39788,1.73373 -6.01687,2.61328 -10.86328,2.61328 -3.45085,0 -6.79806,-0.59292 -10.04297,-1.77734 h -0.002 c -3.2454,-1.23656 -5.83926,-2.83146 -7.78906,-4.78125 l -0.12891,-0.12891 -2.37695,4.66993 0.0644,0.0664 c 2.03627,2.14069 4.90205,3.85773 8.58985,5.15625 3.73931,1.29837 7.63563,1.94727 11.68554,1.94727 4.46252,0 8.23073,-0.6467 11.30469,-1.94922 l 0.002,-0.002 c 3.06924,-1.35255 5.34328,-3.15316 6.8086,-5.40235 l 0.002,-0.002 c 1.51294,-2.29638 2.27149,-4.83412 2.27149,-7.59961 0,-3.33302 -0.86226,-5.98328 -2.59375,-7.92578 l -0.002,-0.002 c -1.72115,-1.98124 -3.83591,-3.44262 -6.33789,-4.38086 -2.44054,-0.98637 -5.65223,-1.96946 -9.63867,-2.95313 -3.35952,-0.82696 -6.04452,-1.57747 -8.05664,-2.24805 -1.94946,-0.71822 -3.58773,-1.71618 -4.91797,-2.99414 l -0.002,-0.002 c -6.5e-4,-6.2e-4 -10e-4,-10e-4 -0.002,-0.002 -1.26631,-1.31908 -1.90039,-3.03693 -1.90039,-5.18164 0,-2.86126 1.16652,-5.1667 3.51953,-6.95703 2.39874,-1.83733 5.96415,-2.76758 10.70704,-2.76758 2.46977,0 4.99248,0.38544 7.56836,1.1582 v 0.002 h 0.002 c 2.5739,0.72069 4.99228,1.82713 7.25781,3.32032 l 0.13281,0.0879 2.04493,-4.82617 -0.0899,-0.0606 c -2.18611,-1.50946 -4.78591,-2.67872 -7.79687,-3.50977 l -0.004,-0.002 c -2.96011,-0.88241 -5.99973,-1.32422 -9.11523,-1.32422 z m 0,0.26563 c 3.09195,0 6.10593,0.43654 9.04296,1.3125 v 0.002 h 0.002 c 2.9502,0.81385 5.48733,1.9571 7.6289,3.41992 l -1.83789,4.33789 c -2.24783,-1.4627 -4.64346,-2.56347 -7.1914,-3.27734 l -0.004,-0.002 c -2.59674,-0.77862 -5.14462,-1.16796 -7.64062,-1.16796 -4.77657,0 -8.40233,0.93297 -10.86719,2.82031 -2.40713,1.83151 -3.62305,4.23427 -3.62305,7.16797 0,2.19936 0.65838,3.99823 1.97656,5.36914 l 0.002,0.002 0.002,0.002 c 1.35958,1.30729 3.03274,2.32487 5.01367,3.05469 l 0.002,0.002 h 0.002 c 2.02335,0.67445 4.71677,1.42554 8.08203,2.25391 3.98016,0.98212 7.18273,1.96395 9.60547,2.94336 h 0.002 v 0.002 c 2.46423,0.92409 4.54097,2.35862 6.23438,4.3086 v 0.002 c 1.68222,1.88613 2.52734,4.46133 2.52734,7.75 0,2.71813 -0.74146,5.19887 -2.22852,7.45508 -1.4322,2.19946 -3.66017,3.96912 -6.69531,5.30664 -3.03115,1.28405 -6.76313,1.92969 -11.19922,1.92969 -4.02164,0 -7.88631,-0.64494 -11.59765,-1.9336 -3.62291,-1.27567 -6.41816,-2.95811 -8.41407,-5.03125 l 2.12891,-4.1875 c 1.9679,1.92803 4.53846,3.51242 7.74609,4.73438 h 0.002 c 3.27385,1.19521 6.653,1.79297 10.13476,1.79297 4.87958,0 8.55379,-0.88034 11.01953,-2.66407 h 0.002 c 2.45844,-1.83075 3.70117,-4.20837 3.70117,-7.09179 0,-2.19934 -0.68604,-3.974 -2.05664,-5.29297 l -0.002,-0.002 c -1.30816,-1.30753 -2.92969,-2.30052 -4.85938,-2.97852 -1.92296,-0.72739 -4.58943,-1.5038 -8.00586,-2.33203 -4.08441,-1.03403 -7.3397,-2.01698 -9.76367,-2.94531 -2.41261,-0.97574 -4.48869,-2.43761 -6.23438,-4.38868 -1.68222,-1.93782 -2.52734,-4.56427 -2.52734,-7.90429 0,-2.71896 0.71522,-5.17489 2.15039,-7.37891 v -0.002 h 0.002 c 1.43287,-2.25164 3.6344,-4.0457 6.61719,-5.38281 2.97869,-1.33528 6.68473,-2.00586 11.1211,-2.00586 z"
           id="path10890" />
      </g>
      <g
         id="path10272">
        <path
           style="color:#000000;-inkscape-font-specification:Montserrat;stroke:none;stroke-width:52.9167;-inkscape-stroke:none"
           d="m 54.177668,285.65214 q -4.656666,0 -8.614832,-2.01789 -3.958166,-2.01788 -6.441721,-5.74322 l 3.414888,-3.88055 q 4.501444,6.67455 11.719276,6.67455 10.089443,0 10.089443,-11.95211 v -32.9071 H 44.476281 v -4.96711 h 25.534052 v 37.64138 q 0,8.53722 -4.035778,12.88344 -3.958166,4.26861 -11.796887,4.26861 z"
           id="path10896" />
        <path
           style="color:#000000;-inkscape-font-specification:Montserrat;fill:url(#linearGradient10395);stroke:none;stroke-width:52.9167;-inkscape-stroke:none"
           d="m 44.34375,230.72656 v 5.23242 h 19.869141 v 32.77344 c 0,3.96542 -0.838657,6.92011 -2.492188,8.87891 -1.65353,1.9588 -4.127818,2.9414 -7.464844,2.9414 -4.771105,0 -8.626742,-2.19466 -11.609375,-6.61718 l -0.0957,-0.14063 -3.595703,4.08594 0.05664,0.084 c 1.667579,2.50138 3.832086,4.43198 6.490234,5.78711 2.657477,1.3548 5.552232,2.03321 8.675781,2.03321 5.249822,0 9.226152,-1.43484 11.894532,-4.3125 2.719905,-2.92913 4.070312,-7.26034 4.070312,-12.97266 v -37.77344 z m 0.265625,0.26367 H 69.878906 V 268.5 c 0,5.67063 -1.340826,9.92714 -4.001953,12.79297 -2.60917,2.81381 -6.497423,4.22656 -11.699219,4.22656 -3.085332,0 -5.934615,-0.66818 -8.554687,-2.00391 -2.58965,-1.3202 -4.692086,-3.19807 -6.328125,-5.62304 l 3.238281,-3.67969 c 3.006499,4.3795 6.923266,6.60352 11.722656,6.60352 3.389264,0 5.958355,-1.00797 7.667969,-3.03321 1.709614,-2.02523 2.552734,-5.04813 2.552734,-9.05078 V 235.69336 H 44.609375 Z"
           id="path10898" />
      </g>
      <g
         id="path10274">
        <path
           style="color:#000000;-inkscape-font-specification:Montserrat;stroke:none;stroke-width:52.9167;-inkscape-stroke:none"
           d="m 102.2189,285.65214 q -6.05367,0 -11.641669,-1.94028 -5.510388,-1.94027 -8.537221,-5.12233 l 2.250722,-4.42383 q 2.949222,2.94922 7.838721,4.81189 4.889499,1.78505 10.089447,1.78505 7.29544,0 10.94316,-2.63877 3.64772,-2.71639 3.64772,-6.985 0,-3.25967 -2.01789,-5.19995 -1.94027,-1.94027 -4.81188,-2.94922 -2.87162,-1.08655 -7.99395,-2.32833 -6.131274,-1.55222 -9.778996,-2.94922 -3.647722,-1.47461 -6.286499,-4.42384 -2.561166,-2.94922 -2.561166,-7.99394 0,-4.11339 2.17311,-7.45066 2.173111,-3.41489 6.674555,-5.43278 4.501444,-2.01789 11.175996,-2.01789 4.65667,0 9.0805,1.31939 4.50144,1.24178 7.76111,3.4925 l -1.94028,4.57905 q -3.41489,-2.25072 -7.29544,-3.33727 -3.88056,-1.16417 -7.60589,-1.16417 -7.140219,0 -10.787941,2.794 -3.57011,2.71639 -3.57011,7.06261 0,3.25966 1.940277,5.27755 2.017889,1.94028 4.967111,3.02684 3.026833,1.00894 8.071553,2.25072 5.97606,1.47461 9.62378,2.94922 3.72533,1.397 6.2865,4.34622 2.56116,2.87161 2.56116,7.83872 0,4.11339 -2.25072,7.52828 -2.17311,3.33728 -6.75216,5.35516 -4.57906,1.94028 -11.25361,1.94028 z"
           id="path10904" />
        <path
           style="color:#000000;-inkscape-font-specification:Montserrat;fill:url(#linearGradient10395);stroke:none;stroke-width:52.9167;-inkscape-stroke:none"
           d="m 103.38281,230.26172 c -4.463026,0 -8.207236,0.67405 -11.230466,2.0293 -3.019127,1.3534 -5.265854,3.18088 -6.730469,5.48242 -1.461641,2.24528 -2.195313,4.75655 -2.195313,7.52148 0,3.38553 0.861823,6.08574 2.59375,8.08008 h 0.002 v 0.002 c 1.772075,1.98056 3.88599,3.46663 6.335937,4.45703 v 0.002 h 0.002 c 2.439649,0.93433 5.702354,1.91752 9.792971,2.95312 h 0.002 c 3.4118,0.82711 6.07285,1.60317 7.97851,2.32422 h 0.002 v 0.002 c 1.89817,0.66693 3.48512,1.63943 4.76367,2.91797 l 0.002,0.002 c 1.31858,1.26786 1.97656,2.9577 1.97656,5.10351 0,2.80806 -1.18856,5.08781 -3.59375,6.87891 -2.39787,1.73463 -6.01756,2.61328 -10.86523,2.61328 -3.451488,0 -6.797494,-0.59249 -10.042966,-1.77734 -3.246226,-1.23666 -5.84087,-2.83111 -7.791015,-4.78125 l -0.128907,-0.12891 -2.376953,4.66992 0.06445,0.0684 c 2.036263,2.14069 4.902044,3.85578 8.589844,5.1543 3.739313,1.29837 7.635637,1.94922 11.685547,1.94922 4.46251,0 8.23072,-0.64865 11.30469,-1.95118 h 0.002 v -0.002 c 3.07026,-1.35299 5.34528,-3.1521 6.81055,-5.40234 1.51391,-2.29697 2.27148,-4.83518 2.27148,-7.60157 0,-3.33414 -0.86109,-5.98309 -2.59375,-7.92578 -1.72052,-1.9812 -3.83489,-3.44222 -6.33594,-4.38086 -2.44087,-0.98673 -5.65466,-1.97104 -9.64257,-2.95507 -3.35931,-0.82691 -6.044567,-1.57556 -8.056644,-2.2461 l -0.0039,-0.002 c -1.947988,-0.71826 -3.584641,-1.71673 -4.914062,-2.99414 -1.268849,-1.31961 -1.902344,-3.03869 -1.902344,-5.18555 0,-2.86125 1.164565,-5.16669 3.517578,-6.95703 2.398732,-1.83733 5.964146,-2.76758 10.707032,-2.76758 2.46977,0 4.99248,0.38739 7.56836,1.16016 h 0.002 c 2.57389,0.72069 4.99227,1.82712 7.25781,3.32031 l 0.13281,0.0879 2.04492,-4.82422 -0.0879,-0.0625 c -2.18612,-1.50946 -4.78787,-2.67871 -7.79883,-3.50976 l -0.004,-0.002 c -2.96011,-0.88241 -5.99973,-1.32226 -9.11524,-1.32226 z m 0,0.26367 c 3.09195,0 6.10594,0.43849 9.04297,1.31445 h 0.002 c 2.9496,0.81369 5.48761,1.95948 7.62891,3.42188 l -1.83789,4.33594 c -2.24836,-1.46304 -4.64281,-2.56348 -7.19141,-3.27735 -2.59819,-0.77946 -5.1472,-1.16992 -7.64453,-1.16992 -4.777394,0 -8.402293,0.93231 -10.867185,2.82031 -2.407129,1.83152 -3.623047,4.23427 -3.623047,7.16797 0,2.19935 0.658379,3.99823 1.976563,5.36914 l 0.002,0.002 0.002,0.002 c 1.359575,1.30728 3.032741,2.32682 5.013672,3.05664 h 0.002 0.002 c 2.023357,0.67445 4.716777,1.42553 8.082037,2.25391 3.98015,0.98211 7.18272,1.96395 9.60547,2.94335 l 0.002,0.002 h 0.002 c 2.46423,0.92408 4.53902,2.35861 6.23242,4.30859 l 0.002,0.002 c 1.68221,1.88613 2.52734,4.46134 2.52734,7.75 0,2.71813 -0.74342,5.19887 -2.23047,7.45508 v 0.002 c -1.43221,2.19946 -3.65822,3.96717 -6.69336,5.30468 -3.03144,1.28451 -6.76429,1.92969 -11.20117,1.92969 -4.021644,0 -7.886313,-0.64493 -11.597658,-1.93359 v 0.002 C 86.997477,282.31211 84.203423,280.627 82.207409,278.553 l 2.128906,-4.18554 c 1.967895,1.92803 4.538459,3.51241 7.746094,4.73437 h 0.002 c 3.273854,1.19522 6.653,1.79297 10.134761,1.79297 4.87957,0 8.55574,-0.88033 11.02148,-2.66406 2.45844,-1.83075 3.70118,-4.20838 3.70118,-7.0918 0,-2.19934 -0.68604,-3.97399 -2.05664,-5.29297 l -0.002,-0.002 c -1.30814,-1.30753 -2.92968,-2.30051 -4.85937,-2.97852 -1.92297,-0.72739 -4.58943,-1.5038 -8.00586,-2.33203 -4.084406,-1.03402 -7.339693,-2.01698 -9.763669,-2.94531 -2.412611,-0.97574 -4.488687,-2.4376 -6.234375,-4.38867 -1.682225,-1.93783 -2.527344,-4.56427 -2.527344,-7.9043 0,-2.71896 0.715215,-5.17489 2.150391,-7.3789 h 0.002 v -0.002 c 1.432864,-2.25164 3.634395,-4.0457 6.617188,-5.38281 2.978689,-1.33528 6.684728,-2.00586 11.121089,-2.00586 z"
           id="path10906" />
      </g>
    </g>
  </g>
</svg>
