<svg width="858.6" height="960.6" viewBox="0 0 227.2 254.1" xmlns:xlink="http://www.w3.org/1999/xlink" xmlns="http://www.w3.org/2000/svg">
<g fill="#fff" stroke-width="52.9" stroke="none" opacity="1">
<path d="M54.6 0v54.3H49v-25H15v25H9.2V0H15v24.2h34V0z"/>
<path d="M9.1-.1v54.6h6V29.4h33.7v25l4.5-.2h-4.2v-25H14.8v25H9.4V.2h5.4v24.1h34.3V.1h5.4v54l3-.2-2.7-54h-6V24H15.1V-.1h-6zM54.5 54h-1.2 1.2zM82.9 5H63.8V0h44v5H88.5v49.3H83z"/>
<path d="M102.8 31.4v5.2h19V86h6V36.6H147v-5.2zm.2.2h43.7v4.7h-19v49.4H122V36.3h-19z" transform="translate(-39.1 -31.5)"/>
<path d="M173.3 0v54.3h-5.5V11l-21.3 36.5h-2.8l-21.3-36.3v43.2h-5.5V0h4.7l23.6 40.3L168.6 0z"/>
<path d="M155.9 31.4V86h5.7V43l21.2 36h2.8L206.8 43v43h5.8V31.5h-5l-23.3 40.1-23.5-40.1zm.2.2h4.6L184.3 72l23.5-40.4h4.5v54.1H207V41.9l-21.5 36.9h-2.6L161.4 42v43.6H156z" transform="translate(-39.1 -31.5)"/>
<path d="M191 0h5.7v49.4h30.5v5H191z"/>
<path d="M230 31.4V86h36.4v-5.3H236V31.4zm.3.2h5.4V81h30.5v4.7h-36z" transform="translate(-39.1 -31.5)"/>
<path d="M32.8 154.5q-8 0-14.6-3.6-6.4-3.6-10.1-9.9-3.7-6.3-3.7-14.2 0-7.8 3.7-14 3.7-6.4 10.2-10 6.5-3.6 14.6-3.6 6 0 11.2 2 5.1 2 8.7 6l-3.7 3.6q-6.3-6.5-16-6.5-6.5 0-11.8 3-5.2 3-8.3 8-3 5.2-3 11.5 0 6.4 3 11.5 3 5.2 8.3 8.1 5.3 3 11.8 3 9.7 0 16-6.6l3.7 3.7q-3.6 3.9-8.8 6-5.1 2-11.2 2z"/>
<path d="M72 130.6a30 30 0 00-14.6 3.6 26.4 26.4 0 00-14 24.1 26.7 26.7 0 0013.9 24.2 30 30 0 0014.7 3.6c4 0 7.7-.7 11.2-2a24 24 0 008.8-6v-.1l-3.8-3.9v.1a21.2 21.2 0 01-16 6.5c-4.3 0-8.2-1-11.7-3-3.5-1.9-6.2-4.5-8.2-8-2-3.3-3-7.1-3-11.4A21.7 21.7 0 0160.5 139c3.5-2 7.4-3 11.7-3 6.4 0 11.7 2.2 16 6.5l3.9-3.8H92a23.3 23.3 0 00-8.7-6c-3.5-1.3-7.2-2-11.3-2zm0 .2c4 0 7.8.7 11.2 2a23 23 0 018.5 5.8l-3.5 3.5a21.8 21.8 0 00-16-6.4c-4.3 0-8.3 1-11.8 3a22 22 0 00-8.4 8c-2 3.5-3 7.4-3 11.6A22 22 0 0060.4 178c3.6 2 7.6 3 11.9 3 6.5 0 11.8-2.2 16-6.5l3.5 3.5a23.7 23.7 0 01-8.6 5.8 30 30 0 01-11.1 2c-5.4 0-10.3-1.1-14.6-3.5a26.4 26.4 0 01-10-9.8 28 28 0 01-3.7-14.2 26.1 26.1 0 0113.8-24c4.3-2.3 9.2-3.5 14.5-3.5z" transform="translate(-39.1 -31.5)"/>
<path d="M79.7 154.5q-6 0-11.6-2-5.5-2-8.6-5l2.3-4.5q3 3 7.8 4.8 5 1.8 10.1 1.8 7.3 0 11-2.7 3.6-2.7 3.6-7 0-3.2-2-5.1-2-2-4.8-3-2.9-1-8-2.3-6.2-1.6-9.8-3-3.7-1.4-6.3-4.4-2.6-3-2.6-8 0-4.1 2.2-7.4 2.2-3.5 6.7-5.5t11.2-2q4.6 0 9 1.3 4.6 1.3 7.8 3.5l-2 4.6q-3.3-2.2-7.2-3.3-3.9-1.2-7.6-1.2-7.2 0-10.8 2.8-3.6 2.7-3.6 7 0 3.3 2 5.3t5 3q3 1 8 2.3 6 1.5 9.6 3 3.7 1.4 6.3 4.3 2.6 2.9 2.6 7.8 0 4.2-2.3 7.6-2.2 3.3-6.7 5.3-4.6 2-11.3 2z"/>
<path d="M120 130.6c-4.5 0-8.2.7-11.2 2a15 15 0 00-6.8 5.5 13.5 13.5 0 00-2.2 7.5c0 3.4.9 6.1 2.6 8.1 1.8 2 4 3.5 6.4 4.5 2.4.9 5.7 1.9 9.8 3 3.4.7 6 1.5 8 2.2 1.8.7 3.4 1.7 4.7 3 1.3 1.2 2 3 2 5 0 2.9-1.2 5.1-3.6 7-2.4 1.7-6 2.6-10.9 2.6a29 29 0 01-10-1.8 21.8 21.8 0 01-7.8-4.8l-.1-.1-2.4 4.6v.1c2 2.1 5 3.9 8.6 5.2a35.4 35.4 0 0023 0 15 15 0 006.8-5.4c1.6-2.3 2.3-4.9 2.3-7.6 0-3.4-.8-6-2.6-8-1.7-2-3.8-3.4-6.3-4.4-2.5-1-5.7-2-9.7-3-3.3-.7-6-1.5-8-2.2a14 14 0 01-5-3 7.2 7.2 0 01-1.8-5.1c0-2.9 1.1-5.2 3.5-7 2.4-1.8 6-2.8 10.7-2.8 2.5 0 5 .4 7.6 1.2 2.5.7 5 1.8 7.2 3.3l.2.1 2-4.8a31.7 31.7 0 00-17-4.8zm0 .2c3 0 6.1.5 9 1.4 3 .8 5.5 2 7.7 3.4l-1.9 4.3a26 26 0 00-7.2-3.3c-2.6-.7-5.1-1.1-7.6-1.1-4.8 0-8.4 1-10.9 2.8a8.6 8.6 0 00-3.6 7.2c0 2.2.7 4 2 5.3 1.3 1.3 3 2.4 5 3 2 .8 4.7 1.5 8 2.3 4 1 7.3 2 9.7 3 2.5 1 4.5 2.3 6.2 4.3 1.7 1.9 2.6 4.5 2.6 7.8 0 2.7-.8 5.1-2.3 7.4-1.4 2.2-3.6 4-6.7 5.3a35.1 35.1 0 01-22.8 0c-3.6-1.3-6.4-3-8.4-5l2.1-4.2c2 2 4.6 3.5 7.8 4.7 3.3 1.2 6.6 1.8 10.1 1.8 5 0 8.6-.9 11-2.6a8.5 8.5 0 003.8-7.1 7 7 0 00-2.1-5.3c-1.3-1.3-3-2.3-4.9-3a71 71 0 00-8-2.3c-4-1-7.3-2-9.7-3-2.4-1-4.5-2.4-6.3-4.4-1.7-2-2.5-4.5-2.5-7.9 0-2.7.7-5.2 2.2-7.4 1.4-2.2 3.6-4 6.6-5.3 3-1.4 6.7-2 11-2z" transform="translate(-39.1 -31.5)"/>
<path d="M127.4 154.5q-6 0-11.6-2-5.5-2-8.5-5l2.2-4.5q3 3 7.8 4.8 5 1.8 10.1 1.8 7.3 0 11-2.7 3.6-2.7 3.6-7 0-3.2-2-5.1-2-2-4.8-3-2.9-1-8-2.3-6.1-1.6-9.8-3-3.6-1.4-6.3-4.4-2.5-3-2.5-8 0-4.1 2.2-7.4 2.1-3.5 6.6-5.5t11.2-2q4.7 0 9 1.3 4.6 1.3 7.8 3.5l-1.9 4.6q-3.4-2.2-7.3-3.3-3.9-1.2-7.6-1.2-7.1 0-10.8 2.8-3.6 2.7-3.6 7 0 3.3 2 5.3t5 3q3 1 8 2.3 6 1.5 9.6 3 3.8 1.4 6.3 4.3 2.6 2.9 2.6 7.8 0 4.2-2.3 7.6-2.1 3.3-6.7 5.3t-11.3 2z"/>
<path d="M167.7 130.6c-4.4 0-8.2.7-11.2 2a15 15 0 00-6.7 5.5 13.5 13.5 0 00-2.2 7.5c0 3.4.8 6.1 2.6 8.1 1.7 2 3.8 3.5 6.3 4.5 2.4.9 5.7 1.9 9.8 3 3.4.7 6 1.5 8 2.2 1.9.7 3.5 1.7 4.7 3 1.4 1.2 2 3 2 5 0 2.9-1.2 5.1-3.6 7-2.4 1.7-6 2.6-10.8 2.6a29 29 0 01-10-1.8 21.8 21.8 0 01-7.9-4.8l-.1-.1-2.4 4.6v.1c2.1 2.1 5 3.9 8.7 5.2a35.4 35.4 0 0023 0 15 15 0 006.8-5.4c1.5-2.3 2.2-4.9 2.2-7.6 0-3.4-.8-6-2.5-8-1.8-2-3.9-3.4-6.4-4.4-2.4-1-5.6-2-9.6-3-3.4-.7-6-1.5-8-2.2a14 14 0 01-5-3 7.2 7.2 0 01-1.9-5.1c0-2.9 1.2-5.2 3.5-7 2.4-1.8 6-2.8 10.7-2.8 2.5 0 5 .4 7.6 1.2 2.6.7 5 1.8 7.3 3.3v.1l2.1-4.8a31.7 31.7 0 00-17-4.8zm0 .2c3.1 0 6.1.5 9 1.4 3 .8 5.6 2 7.7 3.4l-1.8 4.3a26 26 0 00-7.2-3.3c-2.6-.7-5.2-1.1-7.7-1.1-4.8 0-8.4 1-10.8 2.8a8.6 8.6 0 00-3.7 7.2c0 2.2.7 4 2 5.3 1.4 1.3 3 2.4 5 3 2 .8 4.7 1.5 8.1 2.3 4 1 7.2 2 9.6 3 2.5 1 4.6 2.3 6.3 4.3 1.6 1.9 2.5 4.5 2.5 7.8 0 2.7-.8 5.1-2.2 7.4-1.5 2.2-3.7 4-6.7 5.3a35.1 35.1 0 01-22.8 0c-3.7-1.3-6.5-3-8.5-5l2.2-4.2c2 2 4.5 3.5 7.7 4.7 3.3 1.2 6.7 1.8 10.2 1.8 4.8 0 8.5-.9 11-2.6a8.5 8.5 0 003.7-7.1 7 7 0 00-2-5.3c-1.4-1.3-3-2.3-5-3a71 71 0 00-8-2.3c-4-1-7.3-2-9.7-3-2.4-1-4.5-2.4-6.2-4.4-1.7-2-2.6-4.5-2.6-7.9 0-2.7.7-5.2 2.2-7.4 1.4-2.2 3.6-4 6.6-5.3 3-1.4 6.7-2 11.1-2z" transform="translate(-39.1 -31.5)"/>
<path d="M15 254.1q-4.6 0-8.6-2T0 246.4l3.4-3.9q4.5 6.7 11.7 6.7 10.1 0 10.1-12v-32.9H5.4v-5h25.5V237q0 8.5-4 12.9-4 4.2-11.8 4.2z"/>
<path d="M44.3 230.7v5.3h20v32.7c0 4-1 7-2.6 9-1.6 1.9-4.1 2.9-7.4 2.9-4.8 0-8.7-2.2-11.7-6.7v-.1l-3.6 4v.2a17 17 0 006.5 5.8c2.7 1.3 5.6 2 8.7 2 5.2 0 9.2-1.4 11.9-4.3 2.7-3 4-7.3 4-13v-37.8zm.3.3H70v37.5c0 5.7-1.4 10-4 12.8-2.6 2.8-6.5 4.2-11.7 4.2-3.1 0-6-.6-8.6-2a16.6 16.6 0 01-6.3-5.6l3.2-3.7c3 4.4 7 6.6 11.8 6.6 3.3 0 6-1 7.6-3 1.7-2 2.6-5 2.6-9v-33.1H44.6z" transform="translate(-39.1 -31.5)"/>
<path d="M63.1 254.1q-6 0-11.6-1.9-5.6-2-8.6-5.1l2.3-4.4q3 3 7.8 4.8 4.9 1.8 10.1 1.8 7.3 0 11-2.7 3.6-2.7 3.6-7 0-3.2-2-5.2-2-1.9-4.8-3-3-1-8-2.2-6.2-1.6-9.8-3-3.7-1.5-6.3-4.4-2.6-3-2.6-8 0-4.1 2.2-7.5 2.2-3.4 6.7-5.4 4.5-2 11.2-2 4.6 0 9 1.3 4.5 1.3 7.8 3.5l-2 4.6q-3.4-2.3-7.2-3.4-4-1.1-7.6-1.1-7.2 0-10.8 2.8-3.6 2.7-3.6 7 0 3.3 2 5.3t5 3q3 1 8 2.3 6 1.5 9.6 3 3.7 1.3 6.3 4.3 2.6 2.9 2.6 7.8 0 4.1-2.3 7.6-2.2 3.3-6.7 5.3-4.6 2-11.3 2z"/>
<path d="M103.4 230.3c-4.5 0-8.2.6-11.2 2a15 15 0 00-6.8 5.5 13.5 13.5 0 00-2.2 7.5c0 3.4.9 6 2.6 8 1.8 2 4 3.5 6.4 4.5 2.4 1 5.7 2 9.8 3 3.4.8 6 1.6 8 2.3 1.8.7 3.4 1.7 4.7 3 1.3 1.2 2 2.9 2 5 0 2.8-1.2 5.1-3.6 7-2.4 1.7-6 2.5-10.9 2.5a29 29 0 01-10-1.7 21.8 21.8 0 01-7.8-4.8l-.1-.2-2.4 4.7c2 2.2 5 4 8.6 5.2a35.4 35.4 0 0023 0 15 15 0 006.8-5.4c1.6-2.3 2.3-4.8 2.3-7.6 0-3.3-.9-6-2.6-7.9-1.7-2-3.8-3.4-6.3-4.4-2.5-1-5.7-2-9.7-3-3.3-.8-6-1.5-8-2.2a14 14 0 01-5-3 7.2 7.2 0 01-1.8-5.2c0-2.8 1.1-5.1 3.5-7 2.4-1.8 6-2.7 10.7-2.7 2.5 0 5 .4 7.6 1.2 2.5.7 5 1.8 7.2 3.3h.1l2-4.7v-.1a31.7 31.7 0 00-17-4.8zm0 .2c3 0 6 .5 9 1.3 3 .9 5.5 2 7.7 3.5l-1.9 4.3a26 26 0 00-7.2-3.3c-2.6-.8-5.1-1.1-7.6-1.1-4.8 0-8.4.9-10.9 2.8A8.6 8.6 0 0089 245c0 2.2.7 4 2 5.4 1.3 1.3 3 2.3 5 3 2 .7 4.7 1.5 8 2.3 4 1 7.3 2 9.7 3 2.4.9 4.5 2.3 6.2 4.3 1.7 1.9 2.5 4.4 2.5 7.7 0 2.7-.7 5.2-2.2 7.5-1.4 2.2-3.6 4-6.7 5.3a35.1 35.1 0 01-22.8 0c-3.6-1.3-6.4-3-8.4-5l2.1-4.2c2 1.9 4.6 3.5 7.8 4.7 3.3 1.2 6.6 1.8 10.1 1.8 4.9 0 8.6-.9 11-2.7a8.5 8.5 0 003.7-7 7 7 0 00-2-5.4c-1.3-1.3-3-2.3-4.9-3a71 71 0 00-8-2.3c-4-1-7.3-2-9.7-3-2.5-.9-4.5-2.3-6.3-4.3-1.7-2-2.5-4.6-2.5-7.9 0-2.7.7-5.2 2.1-7.4 1.5-2.2 3.7-4 6.7-5.4 3-1.3 6.6-2 11-2z" transform="translate(-39.1 -31.5)"/>
</g>
</svg>